{
	"asset":{
		"generator":"Khronos glTF Blender I/O v4.5.47",
		"version":"2.0"
	},
	"extensionsUsed":[
		"KHR_materials_emissive_strength"
	],
	"scene":0,
	"scenes":[
		{
			"name":"Scene",
			"nodes":[
				4
			]
		}
	],
	"nodes":[
		{
			"mesh":0,
			"name":"Blade.001_Burnin_0"
		},
		{
			"children":[
				0
			],
			"name":"Blade.001"
		},
		{
			"children":[
				1
			],
			"name":"RootNode"
		},
		{
			"children":[
				2
			],
			"name":"great2.fbx"
		},
		{
			"children":[
				3
			],
			"name":"Sketchfab_model"
		}
	],
	"materials":[
		{
			"doubleSided":true,
			"emissiveFactor":[
				1,
				1,
				1
			],
			"emissiveTexture":{
				"index":0
			},
			"extensions":{
				"KHR_materials_emissive_strength":{
					"emissiveStrength":7.542880058288574
				}
			},
			"name":"Burnin",
			"normalTexture":{
				"index":1
			},
			"pbrMetallicRoughness":{
				"baseColorTexture":{
					"index":2
				},
				"metallicRoughnessTexture":{
					"index":3
				}
			}
		}
	],
	"meshes":[
		{
			"name":"Blade.001_Burnin_0",
			"primitives":[
				{
					"attributes":{
						"POSITION":0,
						"NORMAL":1,
						"TEXCOORD_0":2,
						"TEXCOORD_1":3,
						"TEXCOORD_2":4,
						"TEXCOORD_3":5
					},
					"indices":6,
					"material":0
				}
			]
		}
	],
	"textures":[
		{
			"sampler":0,
			"source":0
		},
		{
			"sampler":0,
			"source":1
		},
		{
			"sampler":0,
			"source":2
		},
		{
			"sampler":0,
			"source":3
		}
	],
	"images":[
		{
			"mimeType":"image/png",
			"name":"Burnin_emissive",
			"uri":"Burnin_emissive.png"
		},
		{
			"mimeType":"image/png",
			"name":"Burnin_normal",
			"uri":"Burnin_normal.png"
		},
		{
			"mimeType":"image/png",
			"name":"Burnin_baseColor",
			"uri":"Burnin_baseColor.png"
		},
		{
			"mimeType":"image/png",
			"name":"Burnin_metallicRoughness",
			"uri":"Burnin_metallicRoughness.png"
		}
	],
	"accessors":[
		{
			"bufferView":0,
			"componentType":5126,
			"count":1711,
			"max":[
				2.5301103591918945,
				9.437478065490723,
				0.5410241484642029
			],
			"min":[
				-2.5301103591918945,
				-17.71293067932129,
				-0.5410241484642029
			],
			"type":"VEC3"
		},
		{
			"bufferView":1,
			"componentType":5126,
			"count":1711,
			"type":"VEC3"
		},
		{
			"bufferView":2,
			"componentType":5126,
			"count":1711,
			"type":"VEC2"
		},
		{
			"bufferView":3,
			"componentType":5126,
			"count":1711,
			"type":"VEC2"
		},
		{
			"bufferView":4,
			"componentType":5126,
			"count":1711,
			"type":"VEC2"
		},
		{
			"bufferView":5,
			"componentType":5126,
			"count":1711,
			"type":"VEC2"
		},
		{
			"bufferView":6,
			"componentType":5123,
			"count":4914,
			"type":"SCALAR"
		}
	],
	"bufferViews":[
		{
			"buffer":0,
			"byteLength":20532,
			"byteOffset":0,
			"target":34962
		},
		{
			"buffer":0,
			"byteLength":20532,
			"byteOffset":20532,
			"target":34962
		},
		{
			"buffer":0,
			"byteLength":13688,
			"byteOffset":41064,
			"target":34962
		},
		{
			"buffer":0,
			"byteLength":13688,
			"byteOffset":54752,
			"target":34962
		},
		{
			"buffer":0,
			"byteLength":13688,
			"byteOffset":68440,
			"target":34962
		},
		{
			"buffer":0,
			"byteLength":13688,
			"byteOffset":82128,
			"target":34962
		},
		{
			"buffer":0,
			"byteLength":9828,
			"byteOffset":95816,
			"target":34963
		}
	],
	"samplers":[
		{
			"magFilter":9729,
			"minFilter":9987
		}
	],
	"buffers":[
		{
			"byteLength":105644,
			"uri":"burning_greatsword.bin"
		}
	]
}
